<svg width="119" height="56" viewBox="0 0 119 56" fill="none" xmlns="http://www.w3.org/2000/svg">
<path d="M116.622 3.1872C116.415 3.1714 116.319 3.15561 116.176 3.15561C116.223 3.2188 116.255 3.28199 116.303 3.28199C116.782 3.31358 116.894 3.66113 117.021 4.02448C117.899 6.36255 117.5 8.8586 115.458 10.4858C114.277 11.4178 112.952 11.9708 111.42 11.9708C110.447 11.9708 109.474 11.9234 108.5 11.9708C106.649 12.0498 103.665 13.8033 103.171 16.2362C103.011 16.9945 102.979 17.7369 103.155 18.4952C103.873 21.797 102.469 24.8301 99.0538 25.857C95.7029 26.8523 92.4477 25.1145 91.4743 21.6864C91.203 20.7385 91.219 19.8065 91.235 18.8586C91.2669 17.7212 91.2828 16.5837 90.7403 15.5727C89.6712 13.5821 88.1393 12.1129 85.7139 11.9076C85.3947 11.876 85.0277 11.9076 84.7245 12.0024C81.1342 13.1082 78.0386 10.9123 77.1769 7.78435C76.3152 4.609 77.6556 1.57583 80.9587 0.375197C84.0863 -0.746445 87.6766 0.738546 88.8255 3.96129C89.2403 5.09873 89.2723 6.28356 89.0967 7.4526C88.6659 10.5332 89.9424 12.5553 92.7349 13.7717C93.9317 14.293 95.1763 14.3562 96.4529 14.293C97.6975 14.2298 98.9581 14.1982 100.203 14.1035C102.692 13.9139 104.798 12.2235 105.197 9.69588C105.309 8.98498 105.293 8.24249 105.229 7.51579C105.022 4.78278 106.33 1.84439 109.155 0.533175C110.686 -0.177725 112.218 -0.177725 113.734 0.533175C113.958 0.643759 114.133 0.801737 114.341 0.943917C114.468 1.0387 114.58 1.14929 114.724 1.19668C115.011 1.29147 115.202 1.40205 115.186 1.7654C115.186 1.92338 115.41 2.20774 115.553 2.20774C116.176 2.22354 116.303 2.71327 116.622 3.1872ZM115.043 16.1256C117.277 16.1414 119 17.8475 119 20.0434C119 22.2077 117.213 23.9771 115.027 23.9771C112.857 23.9771 111.053 22.1919 111.069 20.0276C111.085 17.8475 112.841 16.1098 115.043 16.1256ZM99.1656 0.56477C101.4 0.580568 103.123 2.28673 103.123 4.48262C103.123 6.64691 101.336 8.41626 99.1496 8.41626C96.9794 8.41626 95.1763 6.63111 95.1923 4.46682C95.2082 2.28673 96.9635 0.548972 99.1656 0.56477ZM10.4291 32.1761C10.0781 33.4557 9.96637 34.7354 10.11 36.015C10.1419 36.2361 10.1578 36.4573 10.2057 36.6943V36.7101C10.4451 38.0371 10.9397 39.3799 11.6897 40.6911C11.9929 41.2282 12.3439 41.7338 12.711 42.1919C14.1311 43.977 16.014 45.2093 18.2959 45.9044C19.349 46.2203 20.482 46.3783 21.599 46.4099C24.8223 46.4731 28.0615 46.4415 31.3327 46.4415V55.778C31.2529 55.7938 31.1731 55.8412 31.0933 55.8412C28.2211 55.8254 25.3329 55.9518 22.4606 55.8412C21.6787 55.8096 20.8969 55.7622 20.115 55.6832C10.9557 54.8143 4.44527 50.0908 1.25389 41.4968C-1.23539 34.7511 0.0571175 28.3531 4.46123 22.6817C6.12075 20.5332 8.03558 18.7796 10.1898 17.4526C13.078 15.6516 16.381 14.609 20.0671 14.372C23.7053 14.1351 27.3594 14.3246 31.0614 14.3246C31.1572 14.3246 31.2529 14.3246 31.3486 14.3246V23.4873C31.1412 23.5031 30.9497 23.5189 30.7582 23.5189C27.886 23.5189 25.0297 23.5189 22.1734 23.5189C17.4661 23.5189 13.8279 25.4621 11.5461 29.5537C11.3067 29.996 11.0993 30.4226 10.9078 30.8649C10.7163 31.2756 10.5568 31.7338 10.4291 32.1761ZM66.5496 44.609C66.5496 48.4004 66.5496 52.0813 66.5496 55.8096C63.4699 55.8096 60.4541 55.8096 57.3903 55.8096C57.3903 49.0481 57.3903 42.3183 57.3903 35.5252C57.6776 35.5252 57.9488 35.5252 58.2201 35.5252C62.6561 35.5252 67.0921 35.5252 71.5282 35.5252C74.8951 35.5252 77.7514 32.7764 77.7833 29.5379C77.7992 26.0782 75.1025 23.3136 71.6079 23.2978C66.9485 23.282 62.3051 23.2978 57.6456 23.2978C57.5818 23.2978 57.518 23.282 57.4063 23.282C57.4063 20.2804 57.4063 17.2946 57.4063 14.2614C57.518 14.2456 57.6456 14.214 57.7573 14.214C62.6242 14.214 67.4911 14.1509 72.3579 14.2456C76.0759 14.3246 79.2992 15.7622 82.0278 18.2583C84.6607 20.6753 86.2724 23.6769 86.767 27.1998C87.4532 32.1287 86.049 36.4573 82.5384 40.0434C79.4109 43.2346 75.5493 44.6721 71.0814 44.6406C69.6133 44.5932 68.1293 44.609 66.5496 44.609ZM50.2097 55.3041C50.2097 55.8096 50.098 56.015 49.5395 55.9992C46.9385 55.9676 44.3216 55.9834 41.7206 55.9834H41.0824V14.2456C41.2898 14.2298 41.4813 14.1982 41.6728 14.1982H42.5823C44.912 14.1982 47.2258 14.214 49.5555 14.1825C50.0501 14.1825 50.2257 14.293 50.2257 14.8144C50.1938 28.3215 50.1938 41.8128 50.2097 55.3041ZM11.6897 40.6911C11.9929 41.2282 12.3439 41.7338 12.711 42.1919C11.4184 41.3388 10.5089 39.6169 10.2057 36.7101C10.4451 38.0371 10.9397 39.3799 11.6897 40.6911ZM31.3486 14.3088V23.4715C31.1412 23.4873 30.9497 23.5031 30.7582 23.5031C27.886 23.5031 25.0297 23.5031 22.1734 23.5031C17.4661 23.5031 13.8279 25.4463 11.5461 29.5379C11.0514 30.4226 10.6844 31.2914 10.4451 32.1761C12.5195 22.2709 20.0671 14.3562 31.0614 14.3088C31.1572 14.3088 31.2529 14.3088 31.3486 14.3088ZM31.3327 46.4257V55.7622C31.2529 55.778 31.1731 55.8254 31.0933 55.8254C28.2211 55.8096 25.3329 55.936 22.4606 55.8254C13.5567 52.7922 6.39201 44.9091 10.7961 30.8175C10.7961 30.8175 10.828 30.8175 10.9078 30.8333C10.7163 31.2756 10.5727 31.718 10.4451 32.1761C10.0302 33.6769 9.95041 35.1935 10.2217 36.6943V36.7101C10.461 38.0371 10.9557 39.3799 11.7057 40.6911C12.0089 41.2282 12.3599 41.7338 12.7269 42.1919C14.1471 43.977 16.03 45.2093 18.3118 45.9044C19.365 46.2203 20.4979 46.3783 21.6149 46.4099C24.8223 46.4573 28.0456 46.4257 31.3327 46.4257ZM42.5823 14.1982C42.1674 14.5932 41.6568 14.9881 41.0824 15.3831V14.2456C41.2898 14.2298 41.4813 14.1982 41.6728 14.1982H42.5823Z" fill="url(#paint0_linear_1_403)"/>
<defs>
<linearGradient id="paint0_linear_1_403" x1="7.67262e-06" y1="28" x2="119" y2="28" gradientUnits="userSpaceOnUse">
<stop offset="0.2563" stop-color="#5C27FE"/>
<stop offset="0.8666" stop-color="#DEC7FF"/>
</linearGradient>
</defs>
</svg>
