<svg width="24" height="24" viewBox="0 0 24 24" fill="none" xmlns="http://www.w3.org/2000/svg">
<path d="M2 19C2 20.7 3.3 22 5 22H19C20.7 22 22 20.7 22 19V11H2V19ZM19 4H17V3C17 2.4 16.6 2 16 2C15.4 2 15 2.4 15 3V4H9V3C9 2.4 8.6 2 8 2C7.4 2 7 2.4 7 3V4H5C3.3 4 2 5.3 2 7V9H22V7C22 5.3 20.7 4 19 4Z" fill="#6E3FFF" fill-opacity="0.8"/>
<path d="M2 19C2 20.7 3.3 22 5 22H19C20.7 22 22 20.7 22 19V11H2V19ZM19 4H17V3C17 2.4 16.6 2 16 2C15.4 2 15 2.4 15 3V4H9V3C9 2.4 8.6 2 8 2C7.4 2 7 2.4 7 3V4H5C3.3 4 2 5.3 2 7V9H22V7C22 5.3 20.7 4 19 4Z" fill="url(#paint0_linear_8_2856)"/>
<circle cx="8.15385" cy="14.2692" r="1.15385" fill="#1E1E1E"/>
<circle cx="8.15385" cy="18.1538" r="1.15385" fill="#1E1E1E"/>
<circle cx="12" cy="14.2692" r="1.15385" fill="#1E1E1E"/>
<circle cx="12" cy="18.1538" r="1.15385" fill="#1E1E1E"/>
<circle cx="15.8462" cy="14.2692" r="1.15385" fill="#1E1E1E"/>
<circle cx="15.8462" cy="18.1538" r="1.15385" fill="#1E1E1E"/>
<defs>
<linearGradient id="paint0_linear_8_2856" x1="-0.307692" y1="5.07692" x2="49.7278" y2="4.2142" gradientUnits="userSpaceOnUse">
<stop offset="0.0152812" stop-color="#9064FF"/>
<stop offset="0.921485" stop-color="#AC007D"/>
</linearGradient>
</defs>
</svg>
