<svg width="66" height="66" viewBox="0 0 66 66" fill="none" xmlns="http://www.w3.org/2000/svg">
<g id="Group 25">
<circle id="Ellipse 11" cx="33" cy="33" r="33" fill="#7B50FF" fill-opacity="0.25"/>
<circle id="Ellipse 10" cx="33.1702" cy="33.1702" r="23.1702" fill="#6E3FFF" fill-opacity="0.8"/>
<path id="Vector" d="M27.9422 31.2121C27.7422 31.9412 27.6785 32.6703 27.7604 33.3994C27.7785 33.5254 27.7876 33.6514 27.8149 33.7864V33.7954C27.9513 34.5515 28.2331 35.3166 28.6604 36.0637C28.8332 36.3697 29.0332 36.6578 29.2423 36.9188C30.0515 37.9359 31.1243 38.638 32.4244 39.0341C33.0245 39.2141 33.67 39.3041 34.3064 39.3221C36.143 39.3581 37.9886 39.3401 39.8524 39.3401V44.6597C39.8069 44.6687 39.7615 44.6958 39.716 44.6958C38.0795 44.6868 36.4339 44.7588 34.7974 44.6958C34.3519 44.6777 33.9064 44.6507 33.4609 44.6057C28.2422 44.1107 24.5328 41.4194 22.7144 36.5228C21.2961 32.6793 22.0325 29.0339 24.5419 25.8025C25.4874 24.5783 26.5784 23.5792 27.8058 22.8231C29.4514 21.797 31.3334 21.2029 33.4336 21.0679C35.5065 20.9329 37.5885 21.0409 39.6978 21.0409C39.7524 21.0409 39.8069 21.0409 39.8615 21.0409V26.2615C39.7433 26.2705 39.6342 26.2795 39.5251 26.2795C37.8886 26.2795 36.2611 26.2795 34.6337 26.2795C31.9517 26.2795 29.8787 27.3867 28.5786 29.7179C28.4422 29.97 28.324 30.213 28.2149 30.465C28.1058 30.6991 28.0149 30.9601 27.9422 31.2121ZM28.6604 36.0637C28.8332 36.3697 29.0332 36.6578 29.2423 36.9188C28.5059 36.4328 27.9876 35.4516 27.8149 33.7954C27.9513 34.5515 28.2331 35.3166 28.6604 36.0637ZM39.8615 21.0319V26.2525C39.7433 26.2615 39.6342 26.2705 39.5251 26.2705C37.8886 26.2705 36.2611 26.2705 34.6337 26.2705C31.9517 26.2705 29.8787 27.3777 28.5786 29.7089C28.2968 30.213 28.0877 30.7081 27.9513 31.2121C29.1332 25.5684 33.4336 21.0589 39.6978 21.0319C39.7524 21.0319 39.8069 21.0319 39.8615 21.0319ZM39.8524 39.3311V44.6507C39.8069 44.6597 39.7615 44.6868 39.716 44.6868C38.0795 44.6777 36.4339 44.7498 34.7974 44.6868C29.7242 42.9585 25.642 38.467 28.1513 30.438C28.1513 30.438 28.1695 30.438 28.2149 30.447C28.1058 30.6991 28.024 30.9511 27.9513 31.2121C27.7149 32.0672 27.6694 32.9313 27.824 33.7864V33.7954C27.9604 34.5515 28.2422 35.3166 28.6695 36.0637C28.8423 36.3697 29.0423 36.6578 29.2514 36.9188C30.0606 37.9359 31.1334 38.638 32.4335 39.0341C33.0336 39.2141 33.6791 39.3041 34.3155 39.3221C36.143 39.3491 37.9795 39.3311 39.8524 39.3311Z" fill="white"/>
</g>
</svg>
