<svg width="66" height="66" viewBox="0 0 66 66" fill="none" xmlns="http://www.w3.org/2000/svg">
<circle cx="33" cy="33" r="33" fill="#7B50FF" fill-opacity="0.25"/>
<circle cx="33.1702" cy="33.1702" r="23.1702" fill="#6E3FFF" fill-opacity="0.8"/>
<path d="M30.875 26.9375C30.875 26.2413 31.1516 25.5736 31.6438 25.0813C32.1361 24.5891 32.8038 24.3125 33.5 24.3125C34.1962 24.3125 34.8639 24.5891 35.3562 25.0813C35.8484 25.5736 36.125 26.2413 36.125 26.9375L36.125 40.0625C36.125 40.7587 35.8484 41.4264 35.3562 41.9187C34.8639 42.4109 34.1962 42.6875 33.5 42.6875C32.8038 42.6875 32.1361 42.4109 31.6438 41.9187C31.1516 41.4264 30.875 40.7587 30.875 40.0625L30.875 26.9375ZM24.3125 34.8125C24.3125 34.1163 24.5891 33.4486 25.0813 32.9563C25.5736 32.4641 26.2413 32.1875 26.9375 32.1875C27.6337 32.1875 28.3014 32.4641 28.7937 32.9563C29.2859 33.4486 29.5625 34.1163 29.5625 34.8125L29.5625 40.0625C29.5625 40.7587 29.2859 41.4264 28.7937 41.9187C28.3014 42.4109 27.6337 42.6875 26.9375 42.6875C26.2413 42.6875 25.5736 42.4109 25.0813 41.9187C24.5891 41.4264 24.3125 40.7587 24.3125 40.0625L24.3125 34.8125ZM37.4375 32.1875C37.4375 31.4913 37.7141 30.8236 38.2063 30.3313C38.6986 29.8391 39.3663 29.5625 40.0625 29.5625C40.7587 29.5625 41.4264 29.8391 41.9187 30.3313C42.4109 30.8236 42.6875 31.4913 42.6875 32.1875L42.6875 40.0625C42.6875 40.7587 42.4109 41.4264 41.9187 41.9187C41.4264 42.4109 40.7587 42.6875 40.0625 42.6875C39.3663 42.6875 38.6986 42.4109 38.2063 41.9187C37.7141 41.4264 37.4375 40.7587 37.4375 40.0625L37.4375 32.1875Z" fill="#F8F8F8"/>
</svg>
