<svg width="36" height="36" viewBox="0 0 36 36" fill="none" xmlns="http://www.w3.org/2000/svg">
<circle cx="18" cy="18" r="18" fill="#6E3FFF" fill-opacity="0.3"/>
<path d="M14.9922 17.3184C14.8578 17.8409 14.815 18.3634 14.87 18.8859C14.8822 18.9762 14.8883 19.0665 14.9067 19.1633V19.1697C14.9983 19.7115 15.1876 20.2598 15.4747 20.7952C15.5908 21.0146 15.7252 21.221 15.8656 21.408C16.4093 22.1369 17.13 22.6401 18.0035 22.9239C18.4067 23.0529 18.8403 23.1174 19.2679 23.1303C20.5018 23.1561 21.7417 23.1432 22.9939 23.1432V26.9555C22.9634 26.9619 22.9328 26.9813 22.9023 26.9813C21.8028 26.9748 20.6972 27.0264 19.5977 26.9813C19.2984 26.9684 18.9991 26.949 18.6998 26.9168C15.1937 26.562 12.7016 24.6333 11.48 21.1242C10.5271 18.3698 11.0219 15.7574 12.7077 13.4416C13.343 12.5644 14.076 11.8484 14.9006 11.3065C16.0061 10.5712 17.2705 10.1454 18.6815 10.0487C20.0742 9.95191 21.473 10.0293 22.8901 10.0293C22.9267 10.0293 22.9634 10.0293 23 10.0293V13.7706C22.9206 13.7771 22.8473 13.7835 22.774 13.7835C21.6745 13.7835 20.5812 13.7835 19.4878 13.7835C17.6859 13.7835 16.2932 14.5769 15.4198 16.2476C15.3281 16.4282 15.2487 16.6024 15.1754 16.783C15.1021 16.9507 15.041 17.1378 14.9922 17.3184ZM15.4747 20.7952C15.5908 21.0146 15.7252 21.221 15.8656 21.408C15.3709 21.0597 15.0227 20.3566 14.9067 19.1697C14.9983 19.7115 15.1876 20.2598 15.4747 20.7952ZM23 10.0229V13.7642C22.9206 13.7706 22.8473 13.7771 22.774 13.7771C21.6745 13.7771 20.5812 13.7771 19.4878 13.7771C17.6859 13.7771 16.2932 14.5705 15.4198 16.2412C15.2304 16.6024 15.0899 16.9572 14.9983 17.3184C15.7924 13.2739 18.6815 10.0422 22.8901 10.0229C22.9267 10.0229 22.9634 10.0229 23 10.0229ZM22.9939 23.1368V26.949C22.9634 26.9555 22.9328 26.9748 22.9023 26.9748C21.8028 26.9684 20.6972 27.02 19.5977 26.9748C16.1894 25.7363 13.4468 22.5175 15.1327 16.7637C15.1327 16.7637 15.1449 16.7637 15.1754 16.7701C15.1021 16.9507 15.0472 17.1313 14.9983 17.3184C14.8395 17.9312 14.8089 18.5505 14.9128 19.1633V19.1697C15.0044 19.7115 15.1937 20.2598 15.4808 20.7952C15.5969 21.0146 15.7313 21.221 15.8718 21.408C16.4154 22.1369 17.1361 22.6401 18.0096 22.9239C18.4128 23.0529 18.8464 23.1174 19.274 23.1303C20.5018 23.1497 21.7356 23.1368 22.9939 23.1368Z" fill="white"/>
<path d="M14.9922 17.3184C14.8578 17.8409 14.815 18.3634 14.87 18.8859C14.8822 18.9762 14.8883 19.0665 14.9067 19.1633V19.1697C14.9983 19.7115 15.1876 20.2598 15.4747 20.7952C15.5908 21.0146 15.7252 21.221 15.8656 21.408C16.4093 22.1369 17.13 22.6401 18.0035 22.9239C18.4067 23.0529 18.8403 23.1174 19.2679 23.1303C20.5018 23.1561 21.7417 23.1432 22.9939 23.1432V26.9555C22.9634 26.9619 22.9328 26.9813 22.9023 26.9813C21.8028 26.9748 20.6972 27.0264 19.5977 26.9813C19.2984 26.9684 18.9991 26.949 18.6998 26.9168C15.1937 26.562 12.7016 24.6333 11.48 21.1242C10.5271 18.3698 11.0219 15.7574 12.7077 13.4416C13.343 12.5644 14.076 11.8484 14.9006 11.3065C16.0061 10.5712 17.2705 10.1454 18.6815 10.0487C20.0742 9.95191 21.473 10.0293 22.8901 10.0293C22.9267 10.0293 22.9634 10.0293 23 10.0293V13.7706C22.9206 13.7771 22.8473 13.7835 22.774 13.7835C21.6745 13.7835 20.5812 13.7835 19.4878 13.7835C17.6859 13.7835 16.2932 14.5769 15.4198 16.2476C15.3281 16.4282 15.2487 16.6024 15.1754 16.783C15.1021 16.9507 15.041 17.1378 14.9922 17.3184ZM15.4747 20.7952C15.5908 21.0146 15.7252 21.221 15.8656 21.408C15.3709 21.0597 15.0227 20.3566 14.9067 19.1697C14.9983 19.7115 15.1876 20.2598 15.4747 20.7952ZM23 10.0229V13.7642C22.9206 13.7706 22.8473 13.7771 22.774 13.7771C21.6745 13.7771 20.5812 13.7771 19.4878 13.7771C17.6859 13.7771 16.2932 14.5705 15.4198 16.2412C15.2304 16.6024 15.0899 16.9572 14.9983 17.3184C15.7924 13.2739 18.6815 10.0422 22.8901 10.0229C22.9267 10.0229 22.9634 10.0229 23 10.0229ZM22.9939 23.1368V26.949C22.9634 26.9555 22.9328 26.9748 22.9023 26.9748C21.8028 26.9684 20.6972 27.02 19.5977 26.9748C16.1894 25.7363 13.4468 22.5175 15.1327 16.7637C15.1327 16.7637 15.1449 16.7637 15.1754 16.7701C15.1021 16.9507 15.0472 17.1313 14.9983 17.3184C14.8395 17.9312 14.8089 18.5505 14.9128 19.1633V19.1697C15.0044 19.7115 15.1937 20.2598 15.4808 20.7952C15.5969 21.0146 15.7313 21.221 15.8718 21.408C16.4154 22.1369 17.1361 22.6401 18.0096 22.9239C18.4128 23.0529 18.8464 23.1174 19.274 23.1303C20.5018 23.1497 21.7356 23.1368 22.9939 23.1368Z" fill="url(#paint0_linear_8_2962)"/>
<defs>
<linearGradient id="paint0_linear_8_2962" x1="11" y1="18.5" x2="40.5" y2="34.5" gradientUnits="userSpaceOnUse">
<stop offset="0.2563" stop-color="#5C27FE"/>
<stop offset="0.8666" stop-color="#DEC7FF"/>
</linearGradient>
</defs>
</svg>
