<svg width="66" height="66" viewBox="0 0 66 66" fill="none" xmlns="http://www.w3.org/2000/svg">
<circle cx="33" cy="33" r="33" fill="#7B50FF" fill-opacity="0.25"/>
<circle cx="33.1702" cy="33.1702" r="23.1702" fill="#6E3FFF" fill-opacity="0.8"/>
<g clip-path="url(#clip0_79_740)">
<path d="M33.5 26.2272C34.9435 26.2272 36.1136 25.0571 36.1136 23.6136C36.1136 22.1702 34.9435 21 33.5 21C32.0566 21 30.8864 22.1702 30.8864 23.6136C30.8864 25.0571 32.0566 26.2272 33.5 26.2272Z" fill="white"/>
<path d="M29.9154 31.4545H37.0846C37.7023 31.4545 38.2046 30.9124 38.2046 30.2457V29.9109C38.2046 29.0374 37.7722 28.2396 37.0754 27.8286C36.2408 27.3365 34.9431 26.75 33.5 26.75C32.0569 26.75 30.7593 27.3365 29.9247 27.8286C29.2278 28.2395 28.7955 29.0374 28.7955 29.9109V30.2457C28.7955 30.9124 29.2978 31.4545 29.9154 31.4545Z" fill="white"/>
<path d="M26.7045 38.7727C28.148 38.7727 29.3182 37.6026 29.3182 36.1591C29.3182 34.7156 28.148 33.5455 26.7045 33.5455C25.2611 33.5455 24.0909 34.7156 24.0909 36.1591C24.0909 37.6026 25.2611 38.7727 26.7045 38.7727Z" fill="white"/>
<path d="M30.2799 40.3741C29.4453 39.882 28.1477 39.2955 26.7045 39.2955C25.2614 39.2955 23.9638 39.882 23.1292 40.3741C22.4324 40.785 22 41.5829 22 42.4563V42.7911C22 43.4578 22.5023 44 23.12 44H30.2891C30.9068 44 31.4091 43.4578 31.4091 42.7911V42.4563C31.4091 41.5829 30.9767 40.785 30.2799 40.3741Z" fill="white"/>
<path d="M40.2955 38.7727C41.7389 38.7727 42.9091 37.6026 42.9091 36.1591C42.9091 34.7156 41.7389 33.5455 40.2955 33.5455C38.852 33.5455 37.6818 34.7156 37.6818 36.1591C37.6818 37.6026 38.852 38.7727 40.2955 38.7727Z" fill="white"/>
<path d="M43.8709 40.3741C43.0362 39.882 41.7386 39.2955 40.2955 39.2955C38.8524 39.2955 37.5548 39.882 36.7201 40.3741C36.0233 40.785 35.591 41.5829 35.591 42.4563V42.7912C35.591 43.4579 36.0933 44 36.7109 44H43.8801C44.4977 44 45 43.4579 45 42.7912V42.4563C45 41.5829 44.5676 40.785 43.8709 40.3741ZM36.1132 38.7727C36.2668 38.7727 36.4184 38.7053 36.5221 38.5767C36.7023 38.3511 36.6655 38.0223 36.4404 37.8416L34.0228 35.9076V33.0227C34.0228 32.7338 33.789 32.5 33.5 32.5C33.2111 32.5 32.9773 32.7338 32.9773 33.0227V35.9079L30.5597 37.8416C30.3345 38.0223 30.2978 38.351 30.478 38.5767C30.5816 38.7053 30.7332 38.7727 30.8869 38.7727C31.0012 38.7727 31.1166 38.7354 31.2131 38.6584L33.5 36.8288L35.7869 38.6584C35.8795 38.7325 35.9946 38.7728 36.1132 38.7727Z" fill="white"/>
</g>
<defs>
<clipPath id="clip0_79_740">
<rect width="23" height="23" fill="white" transform="translate(22 21)"/>
</clipPath>
</defs>
</svg>
