<svg width="31" height="31" viewBox="0 0 31 31" fill="none" xmlns="http://www.w3.org/2000/svg">
<circle cx="15.5" cy="15.5" r="15.5" fill="#4DAFFB" fill-opacity="0.6"/>
<path d="M16.3334 13.3333H9.66671C8.93137 13.3333 8.33337 13.9313 8.33337 14.6666V21.3333C8.33337 22.0686 8.93137 22.6666 9.66671 22.6666H16.3334C17.0687 22.6666 17.6667 22.0686 17.6667 21.3333V14.6666C17.6667 13.9313 17.0687 13.3333 16.3334 13.3333Z" fill="#F8F8F8"/>
<path d="M20.3334 9.33325H13.6667C13.3131 9.33325 12.9739 9.47373 12.7239 9.72378C12.4739 9.97382 12.3334 10.313 12.3334 10.6666V11.9999H17.6667C18.0203 11.9999 18.3595 12.1404 18.6095 12.3904C18.8596 12.6405 19 12.9796 19 13.3333V18.6666H20.3334C20.687 18.6666 21.0261 18.5261 21.2762 18.2761C21.5262 18.026 21.6667 17.6869 21.6667 17.3333V10.6666C21.6667 10.313 21.5262 9.97382 21.2762 9.72378C21.0261 9.47373 20.687 9.33325 20.3334 9.33325Z" fill="#F8F8F8"/>
</svg>
