<svg width="66" height="66" viewBox="0 0 66 66" fill="none" xmlns="http://www.w3.org/2000/svg">
<circle cx="33" cy="33" r="33" fill="#7B50FF" fill-opacity="0.25"/>
<circle cx="33.1702" cy="33.1702" r="23.1702" fill="#6E3FFF" fill-opacity="0.8"/>
<path d="M33.0006 39.7194C36.7061 39.7194 39.7206 36.7048 39.7206 32.9994C39.7206 29.2939 36.7061 26.2793 33.0006 26.2793C29.2945 26.2793 26.2793 29.2939 26.2793 32.9994C26.2793 36.7048 29.2945 39.7194 33.0006 39.7194ZM32.2835 29.2281V28.8806C32.2835 28.6904 32.359 28.508 32.4935 28.3735C32.628 28.239 32.8104 28.1634 33.0006 28.1634C33.1909 28.1634 33.3733 28.239 33.5078 28.3735C33.6423 28.508 33.7178 28.6904 33.7178 28.8806V29.2296C34.388 29.4153 34.9587 29.8544 35.2639 30.4508C35.3506 30.6201 35.3664 30.817 35.308 30.998C35.2495 31.179 35.1215 31.3293 34.9522 31.416C34.7829 31.5026 34.586 31.5185 34.405 31.46C34.224 31.4015 34.0737 31.2735 33.987 31.1042C33.8197 30.7774 33.432 30.5663 32.999 30.5663C32.4221 30.5663 31.9346 30.9592 31.9346 31.4243C31.9346 31.9563 32.1047 32.0788 33.148 32.2983C33.6516 32.4042 34.1723 32.5138 34.6202 32.809C35.2035 33.1936 35.4995 33.7876 35.4995 34.5745C35.4995 35.6095 34.7472 36.4861 33.7178 36.7699V37.1182C33.7178 37.3084 33.6423 37.4908 33.5078 37.6253C33.3733 37.7598 33.1909 37.8354 33.0006 37.8354C32.8104 37.8354 32.628 37.7598 32.4935 37.6253C32.359 37.4908 32.2835 37.3084 32.2835 37.1182V36.7699C31.6127 36.5846 31.0414 36.1451 30.7358 35.548C30.6496 35.3787 30.6342 35.1821 30.6927 35.0014C30.7513 34.8207 30.8792 34.6707 31.0483 34.5841C31.2174 34.4976 31.4139 34.4817 31.5947 34.5399C31.7755 34.5981 31.9259 34.7257 32.0127 34.8946C32.1801 35.2214 32.5671 35.4325 32.999 35.4325C33.5869 35.4325 34.0652 35.0476 34.0652 34.5745C34.0652 34.0435 33.8953 33.9212 32.8528 33.7019C32.349 33.5959 31.828 33.4863 31.3802 33.1909C30.7965 32.8061 30.5004 32.2116 30.5004 31.4243C30.5003 30.3883 31.2534 29.5112 32.2836 29.2281H32.2835ZM42.226 37.4909C41.2153 39.5674 39.5336 41.2422 37.4529 42.2443C35.3723 43.2465 33.0144 43.5173 30.7607 43.013C28.507 42.5088 26.4893 41.2589 25.0342 39.4656C23.579 37.6723 22.7714 35.4405 22.742 33.1313L22.3668 33.5065C22.2319 33.6392 22.0501 33.7132 21.8609 33.7124C21.6717 33.7117 21.4904 33.6362 21.3567 33.5024C21.2229 33.3686 21.1474 33.1874 21.1466 32.9982C21.1458 32.809 21.2199 32.6271 21.3526 32.4923L22.9505 30.8943C23.085 30.7598 23.2674 30.6842 23.4576 30.6842C23.6478 30.6842 23.8302 30.7598 23.9647 30.8943L25.5627 32.4923C25.6962 32.627 25.771 32.8091 25.7705 32.9987C25.7701 33.1884 25.6946 33.3702 25.5605 33.5043C25.4264 33.6384 25.2446 33.7139 25.0549 33.7143C24.8653 33.7148 24.6831 33.64 24.5484 33.5065L24.1765 33.1345C24.2491 37.939 28.1784 41.8252 32.9993 41.8252C36.4025 41.8252 39.444 39.9235 40.9367 36.8622C40.9777 36.7771 41.0351 36.701 41.1057 36.6381C41.1762 36.5753 41.2584 36.527 41.3477 36.496C41.4369 36.4651 41.5314 36.452 41.6257 36.4577C41.72 36.4633 41.8122 36.4876 41.8971 36.529C41.982 36.5704 42.0579 36.6281 42.1204 36.6989C42.1829 36.7697 42.2308 36.8522 42.2614 36.9416C42.292 37.031 42.3046 37.1255 42.2985 37.2198C42.2924 37.314 42.2678 37.4062 42.226 37.4909ZM44.6474 33.5065L43.0494 35.1045C42.9149 35.2389 42.7325 35.3145 42.5423 35.3145C42.3521 35.3145 42.1697 35.2389 42.0352 35.1045L40.4372 33.5065C40.3701 33.44 40.3169 33.3609 40.2804 33.2738C40.244 33.1867 40.2251 33.0932 40.2249 32.9987C40.2247 32.9043 40.2432 32.8107 40.2792 32.7234C40.3153 32.6361 40.3682 32.5568 40.435 32.49C40.5018 32.4233 40.5811 32.3703 40.6684 32.3343C40.7557 32.2982 40.8492 32.2798 40.9437 32.28C41.0381 32.2802 41.1316 32.299 41.2187 32.3355C41.3059 32.3719 41.385 32.4252 41.4515 32.4923L41.8234 32.8642C41.7508 28.0605 37.8207 24.1749 32.9993 24.1749C29.5964 24.1749 26.5555 26.0761 25.0632 29.1365C24.9793 29.3066 24.8315 29.4365 24.652 29.4978C24.4726 29.5592 24.2761 29.547 24.1057 29.4639C23.9352 29.3807 23.8046 29.2335 23.7425 29.0543C23.6803 28.8752 23.6916 28.6787 23.7739 28.5079C24.7848 26.4316 26.4666 24.7571 28.5472 23.7552C30.6278 22.7533 32.9855 22.4825 35.239 22.9868C37.4926 23.491 39.5101 24.7408 40.9653 26.5338C42.4205 28.3269 43.2282 30.5585 43.2579 32.8675L43.6332 32.4923C43.7681 32.3596 43.9499 32.2856 44.1391 32.2863C44.3283 32.2871 44.5095 32.3626 44.6433 32.4964C44.7771 32.6302 44.8526 32.8114 44.8533 33.0006C44.8541 33.1898 44.7801 33.3716 44.6474 33.5065Z" fill="white"/>
</svg>
