<svg width="66" height="66" viewBox="0 0 66 66" fill="none" xmlns="http://www.w3.org/2000/svg">
<circle cx="33" cy="33" r="33" fill="#7B50FF" fill-opacity="0.25"/>
<circle cx="33.1702" cy="33.1702" r="23.1702" fill="#6E3FFF" fill-opacity="0.8"/>
<g clip-path="url(#clip0_79_745)">
<path fill-rule="evenodd" clip-rule="evenodd" d="M33 44C26.9246 44 22 39.0754 22 33C22 26.9246 26.9246 22 33 22C39.0754 22 44 26.9246 44 33C44 39.0754 39.0754 44 33 44ZM37.4688 35.1684C37.4688 33.4338 36.3853 32.4541 33.8504 31.8436V28.7911C34.6342 28.952 35.3842 29.2896 36.1178 29.8196L37.0521 28.3099C36.1318 27.6358 35.0509 27.2148 33.9171 27.0889V26.125H32.4665V27.0566C30.382 27.2174 28.9651 28.4061 28.9651 30.1407C28.9651 31.9557 30.0988 32.8391 32.5332 33.4496V36.5984C31.449 36.4375 30.5491 35.9556 29.5982 35.2165L28.5312 36.6781C29.6734 37.5574 31.0342 38.1075 32.4665 38.269V39.875H33.9171V38.2848C36.0346 38.1081 37.4688 36.9352 37.4688 35.1684ZM32.5325 31.5061C31.2489 31.1369 30.9327 30.7031 30.9327 30.0279C30.9327 29.3219 31.4827 28.7595 32.5332 28.6791L32.5325 31.5061ZM35.5011 35.2804C35.5011 36.0518 34.9009 36.5819 33.8504 36.6623V33.7549C35.1512 34.1248 35.5011 34.5579 35.5011 35.2811V35.2804Z" fill="#F8F8F8"/>
</g>
<defs>
<clipPath id="clip0_79_745">
<rect width="22" height="22" fill="white" transform="translate(22 22)"/>
</clipPath>
</defs>
</svg>
