<svg width="66" height="66" viewBox="0 0 66 66" fill="none" xmlns="http://www.w3.org/2000/svg">
<circle cx="33" cy="33" r="33" fill="#7B50FF" fill-opacity="0.25"/>
<circle cx="33.1702" cy="33.1702" r="23.1702" fill="#6E3FFF" fill-opacity="0.8"/>
<path d="M25.1014 29.1724C24.765 28.9781 24.3351 29.0935 24.141 29.4297C23.9467 29.766 24.0621 30.196 24.3982 30.39C24.7344 30.5843 25.1646 30.469 25.3586 30.1328C25.5529 29.7964 25.4376 29.3665 25.1014 29.1724ZM43.0311 27.672H42.3279V26.9689C42.3279 26.5803 42.0135 26.2658 41.6248 26.2658C41.2363 26.2658 40.9217 26.5803 40.9217 26.9689V27.672H40.2186C39.83 27.672 39.5154 27.9866 39.5154 28.3752C39.5154 28.7639 39.83 29.0783 40.2186 29.0783H40.9217V29.7814C40.9217 30.17 41.2363 30.4845 41.6248 30.4845C42.0135 30.4845 42.3279 30.17 42.3279 29.7814V29.0783H43.0311C43.4197 29.0783 43.7342 28.7639 43.7342 28.3752C43.7342 27.9866 43.4197 27.672 43.0311 27.672ZM24.0469 25.5158C24.0469 25.9045 24.3613 26.2189 24.75 26.2189C25.1386 26.2189 25.4531 25.9045 25.4531 25.5158V24.8127H26.1562C26.5448 24.8127 26.8594 24.4983 26.8594 24.1095C26.8594 23.7209 26.5448 23.4064 26.1562 23.4064H25.4531V22.7033C25.4531 22.3147 25.1386 22.0002 24.75 22.0002C24.3613 22.0002 24.0469 22.3147 24.0469 22.7033V23.4064H23.3438C22.9552 23.4064 22.6406 23.7209 22.6406 24.1095C22.6406 24.4983 22.9552 24.8127 23.3438 24.8127H24.0469V25.5158ZM28.4881 23.3145C29.1573 24.6533 29.529 26.1314 29.6226 27.6251H36.7524C36.8458 26.1316 37.2175 24.6533 37.8867 23.3145L38.035 23.0179C38.101 22.8859 38.1238 22.7365 38.1002 22.5908C38.0765 22.4451 38.0076 22.3106 37.9032 22.2063C37.6897 21.9921 37.3628 21.9392 37.0917 22.0745L34.7324 23.2541L33.6845 22.2063C33.4098 21.9317 32.9648 21.9317 32.6902 22.2063L31.6425 23.2541L29.2831 22.0743C29.0113 21.9392 28.6866 21.9913 28.4716 22.2063C28.3672 22.3106 28.2983 22.4451 28.2746 22.5908C28.251 22.7365 28.2738 22.8859 28.3398 23.0179L28.4881 23.3145ZM37.4923 29.0783H28.8823L26.137 32.4009C24.7892 34.0331 24.0469 36.1459 24.0469 38.2658C24.0469 42.9643 27.6347 46 33.1873 46C38.7402 46 42.3279 42.9643 42.3279 38.2658C42.3279 36.146 41.5856 34.08 40.2371 32.4478L37.4923 29.0783ZM33.1798 36.3624C34.3431 36.3624 35.2892 37.3085 35.2892 38.4718C35.2892 39.3844 34.7032 40.1558 33.8904 40.4491V41.0783C33.8904 41.4668 33.576 41.7814 33.1873 41.7814C32.7988 41.7814 32.4844 41.4668 32.4844 41.0783V40.4539C31.6637 40.1648 31.0704 39.3898 31.0704 38.4718C31.0704 38.083 31.385 37.7686 31.7736 37.7686C32.1623 37.7686 32.4767 38.083 32.4767 38.4718C32.4767 38.8598 32.792 39.1749 33.1798 39.1749C33.5678 39.1749 33.8829 38.8598 33.8829 38.4718C33.8829 38.0838 33.5678 37.7686 33.1798 37.7686C32.0167 37.7686 31.0704 36.8224 31.0704 35.6593C31.0704 34.741 31.6637 33.9663 32.4844 33.6771V32.6407C32.4844 32.2522 32.7988 31.9376 33.1873 31.9376C33.576 31.9376 33.8904 32.2522 33.8904 32.6407V33.6819C34.7032 33.9753 35.2892 34.7467 35.2892 35.6593C35.2892 36.048 34.9748 36.3624 34.5861 36.3624C34.1975 36.3624 33.8829 36.048 33.8829 35.6593C33.8829 35.2715 33.5678 34.9561 33.1798 34.9561C32.792 34.9561 32.4767 35.2715 32.4767 35.6593C32.4767 36.0473 32.7918 36.3624 33.1798 36.3624Z" fill="white"/>
</svg>
