<svg width="24" height="24" viewBox="0 0 24 24" fill="none" xmlns="http://www.w3.org/2000/svg">
<path d="M17.75 3C18.612 3 19.4386 3.34241 20.0481 3.9519C20.6576 4.5614 21 5.38805 21 6.25V17.75C21 18.612 20.6576 19.4386 20.0481 20.0481C19.4386 20.6576 18.612 21 17.75 21H12.76C12.926 20.618 13.004 20.213 13.004 19.812C13.004 19.707 12.997 19.602 12.984 19.5H17.75C18.2141 19.5 18.6592 19.3156 18.9874 18.9874C19.3156 18.6592 19.5 18.2141 19.5 17.75V6.25C19.5 5.78587 19.3156 5.34075 18.9874 5.01256C18.6592 4.68437 18.2141 4.5 17.75 4.5H6.25C5.78587 4.5 5.34075 4.68437 5.01256 5.01256C4.68437 5.34075 4.5 5.78587 4.5 6.25V11.51C3.9663 11.5498 3.45086 11.7216 3 12.01V6.25C3 5.38805 3.34241 4.5614 3.9519 3.9519C4.5614 3.34241 5.38805 3 6.25 3H17.75ZM11.75 6C11.9312 6.00001 12.1063 6.06564 12.2429 6.18477C12.3795 6.30389 12.4684 6.46845 12.493 6.648L12.5 6.75V12H16.248C16.438 12.0001 16.6209 12.0722 16.7598 12.202C16.8986 12.3317 16.9831 12.5093 16.996 12.6989C17.009 12.8885 16.9495 13.0759 16.8296 13.2233C16.7097 13.3707 16.5382 13.4671 16.35 13.493L16.248 13.5H11.75C11.5688 13.5 11.3937 13.4344 11.2571 13.3152C11.1205 13.1961 11.0316 13.0316 11.007 12.852L11 12.75V6.75C11 6.55109 11.079 6.36032 11.2197 6.21967C11.3603 6.07902 11.5511 6 11.75 6ZM4.75 17C5.34674 17 5.91903 16.7629 6.34099 16.341C6.76295 15.919 7 15.3467 7 14.75C7 14.1533 6.76295 13.581 6.34099 13.159C5.91903 12.7371 5.34674 12.5 4.75 12.5C4.15326 12.5 3.58097 12.7371 3.15901 13.159C2.73705 13.581 2.5 14.1533 2.5 14.75C2.5 15.3467 2.73705 15.919 3.15901 16.341C3.58097 16.7629 4.15326 17 4.75 17ZM4.75 23C7.429 23 8.5 21.431 8.5 19.875C8.5 18.84 7.78 18 6.893 18H2.607C1.72 18 1 18.84 1 19.875C1 21.437 2.071 23 4.75 23ZM11.5 15.75C11.5 16.2141 11.3156 16.6592 10.9874 16.9874C10.6592 17.3156 10.2141 17.5 9.75 17.5C9.28587 17.5 8.84075 17.3156 8.51256 16.9874C8.18437 16.6592 8 16.2141 8 15.75C8 15.2859 8.18437 14.8408 8.51256 14.5126C8.84075 14.1844 9.28587 14 9.75 14C10.2141 14 10.6592 14.1844 10.9874 14.5126C11.3156 14.8408 11.5 15.2859 11.5 15.75ZM8.916 22C9.32 21.34 9.498 20.595 9.498 19.875C9.49709 19.3983 9.38765 18.9281 9.178 18.5H10.718C11.428 18.5 12.004 19.088 12.004 19.813C12.004 20.903 11.147 22 9.004 22H8.916Z" fill="white"/>
</svg>
