<svg width="24" height="24" viewBox="0 0 24 24" fill="none" xmlns="http://www.w3.org/2000/svg">
<path d="M12 1.5C11.2044 1.5 10.4413 1.81607 9.87868 2.37868C9.31607 2.94129 9 3.70435 9 4.5V19.5C9 20.2956 9.31607 21.0587 9.87868 21.6213C10.4413 22.1839 11.2044 22.5 12 22.5C12.7956 22.5 13.5587 22.1839 14.1213 21.6213C14.6839 21.0587 15 20.2956 15 19.5V4.5C15 3.70435 14.6839 2.94129 14.1213 2.37868C13.5587 1.81607 12.7956 1.5 12 1.5ZM13.5 4.5V19.5C13.5 19.8978 13.342 20.2794 13.0607 20.5607C12.7794 20.842 12.3978 21 12 21C11.6022 21 11.2206 20.842 10.9393 20.5607C10.658 20.2794 10.5 19.8978 10.5 19.5V4.5C10.5 4.10218 10.658 3.72064 10.9393 3.43934C11.2206 3.15804 11.6022 3 12 3C12.3978 3 12.7794 3.15804 13.0607 3.43934C13.342 3.72064 13.5 4.10218 13.5 4.5ZM4.5 10.5C3.70435 10.5 2.94129 10.8161 2.37868 11.3787C1.81607 11.9413 1.5 12.7044 1.5 13.5V19.5C1.5 20.2956 1.81607 21.0587 2.37868 21.6213C2.94129 22.1839 3.70435 22.5 4.5 22.5C5.29565 22.5 6.05871 22.1839 6.62132 21.6213C7.18393 21.0587 7.5 20.2956 7.5 19.5V13.5C7.5 12.7044 7.18393 11.9413 6.62132 11.3787C6.05871 10.8161 5.29565 10.5 4.5 10.5ZM6 19.5C6 19.8978 5.84196 20.2794 5.56066 20.5607C5.27936 20.842 4.89782 21 4.5 21C4.10218 21 3.72064 20.842 3.43934 20.5607C3.15804 20.2794 3 19.8978 3 19.5V13.5C3 13.1022 3.15804 12.7206 3.43934 12.4393C3.72064 12.158 4.10218 12 4.5 12C4.89782 12 5.27936 12.158 5.56066 12.4393C5.84196 12.7206 6 13.1022 6 13.5V19.5ZM16.5 10.5C16.5 9.70435 16.8161 8.94129 17.3787 8.37868C17.9413 7.81607 18.7044 7.5 19.5 7.5C20.2956 7.5 21.0587 7.81607 21.6213 8.37868C22.1839 8.94129 22.5 9.70435 22.5 10.5V19.5C22.5 20.2956 22.1839 21.0587 21.6213 21.6213C21.0587 22.1839 20.2956 22.5 19.5 22.5C18.7044 22.5 17.9413 22.1839 17.3787 21.6213C16.8161 21.0587 16.5 20.2956 16.5 19.5V10.5ZM21 10.5C21 10.1022 20.842 9.72064 20.5607 9.43934C20.2794 9.15804 19.8978 9 19.5 9C19.1022 9 18.7206 9.15804 18.4393 9.43934C18.158 9.72064 18 10.1022 18 10.5V19.5C18 19.8978 18.158 20.2794 18.4393 20.5607C18.7206 20.842 19.1022 21 19.5 21C19.8978 21 20.2794 20.842 20.5607 20.5607C20.842 20.2794 21 19.8978 21 19.5V10.5Z" fill="white"/>
</svg>
