<svg width="66" height="66" viewBox="0 0 66 66" fill="none" xmlns="http://www.w3.org/2000/svg">
<circle cx="33" cy="33" r="33" fill="#7B50FF" fill-opacity="0.25"/>
<circle cx="33.1702" cy="33.1702" r="23.1702" fill="#6E3FFF" fill-opacity="0.8"/>
<path d="M36 23.0027C36.7023 23.0026 37.3922 23.1874 38.0004 23.5386C38.6086 23.8897 39.1137 24.3948 39.4647 25.003C39.8158 25.6112 40.0006 26.3012 40.0005 27.0034C40.0003 27.7057 39.8153 28.3956 39.464 29.0037L44 29.0027V31.0027H42V41.0027C42 41.2679 41.8946 41.5223 41.7071 41.7098C41.5196 41.8973 41.2652 42.0027 41 42.0027H25C24.7348 42.0027 24.4804 41.8973 24.2929 41.7098C24.1054 41.5223 24 41.2679 24 41.0027V31.0027H22V29.0027L26.536 29.0037C26.0387 28.1444 25.8787 27.131 26.0871 26.1603C26.2955 25.1896 26.8575 24.3311 27.6637 23.7518C28.4699 23.1724 29.4627 22.9136 30.4492 23.0255C31.4356 23.1375 32.3452 23.6124 33.001 24.3577C33.3755 23.9312 33.8368 23.5897 34.354 23.356C34.8712 23.1223 35.4324 23.0018 36 23.0027ZM34 31.0027H32V41.0027H34V31.0027ZM30 25.0027C29.4834 25.0039 28.9873 25.205 28.6156 25.5638C28.2439 25.9227 28.0255 26.4114 28.0061 26.9276C27.9868 27.4439 28.1679 27.9476 28.5116 28.3333C28.8553 28.719 29.3349 28.9567 29.85 28.9967L30 29.0027H32V27.0027C32 26.5248 31.8289 26.0626 31.5176 25.7C31.2063 25.3373 30.7754 25.0981 30.303 25.0257L30.149 25.0077L29.999 25.0027H30ZM36 25.0027C35.4954 25.0025 35.0094 25.1931 34.6395 25.5362C34.2695 25.8793 34.0428 26.3495 34.005 26.8527L34 27.0027V29.0027H36C36.5044 29.0026 36.9901 28.8119 37.3599 28.4689C37.7297 28.1258 37.9562 27.6557 37.994 27.1527L38 27.0027C38 26.4723 37.7893 25.9636 37.4142 25.5885C37.0391 25.2134 36.5304 25.0027 36 25.0027Z" fill="#F8F8F8"/>
<path d="M36 23.0027C36.7023 23.0026 37.3922 23.1874 38.0004 23.5386C38.6086 23.8897 39.1137 24.3948 39.4647 25.003C39.8158 25.6112 40.0006 26.3012 40.0005 27.0034C40.0003 27.7057 39.8153 28.3956 39.464 29.0037L44 29.0027V31.0027H42V41.0027C42 41.2679 41.8946 41.5223 41.7071 41.7098C41.5196 41.8973 41.2652 42.0027 41 42.0027H25C24.7348 42.0027 24.4804 41.8973 24.2929 41.7098C24.1054 41.5223 24 41.2679 24 41.0027V31.0027H22V29.0027L26.536 29.0037C26.0387 28.1444 25.8787 27.131 26.0871 26.1603C26.2955 25.1896 26.8575 24.3311 27.6637 23.7518C28.4699 23.1724 29.4627 22.9136 30.4492 23.0255C31.4356 23.1375 32.3452 23.6124 33.001 24.3577C33.3755 23.9312 33.8368 23.5897 34.354 23.356C34.8712 23.1223 35.4324 23.0018 36 23.0027ZM34 31.0027H32V41.0027H34V31.0027ZM30 25.0027C29.4834 25.0039 28.9873 25.205 28.6156 25.5638C28.2439 25.9227 28.0255 26.4114 28.0061 26.9276C27.9868 27.4439 28.1679 27.9476 28.5116 28.3333C28.8553 28.719 29.3349 28.9567 29.85 28.9967L30 29.0027H32V27.0027C32 26.5248 31.8289 26.0626 31.5176 25.7C31.2063 25.3373 30.7754 25.0981 30.303 25.0257L30.149 25.0077L29.999 25.0027H30ZM36 25.0027C35.4954 25.0025 35.0094 25.1931 34.6395 25.5362C34.2695 25.8793 34.0428 26.3495 34.005 26.8527L34 27.0027V29.0027H36C36.5044 29.0026 36.9901 28.8119 37.3599 28.4689C37.7297 28.1258 37.9562 27.6557 37.994 27.1527L38 27.0027C38 26.4723 37.7893 25.9636 37.4142 25.5885C37.0391 25.2134 36.5304 25.0027 36 25.0027Z" fill="white"/>
</svg>
