<svg width="24" height="24" viewBox="0 0 24 24" fill="none" xmlns="http://www.w3.org/2000/svg">
<path d="M15.0049 2.00301C15.7072 2.00292 16.3971 2.18774 17.0053 2.53887C17.6135 2.89 18.1185 3.39507 18.4696 4.0033C18.8207 4.61153 19.0055 5.30147 19.0054 6.00375C19.0052 6.70604 18.8202 7.39591 18.4689 8.004L23.0049 8.00301V10.003H21.0049V20.003C21.0049 20.2682 20.8995 20.5226 20.712 20.7101C20.5245 20.8976 20.2701 21.003 20.0049 21.003H4.00488C3.73967 21.003 3.48531 20.8976 3.29778 20.7101C3.11024 20.5226 3.00488 20.2682 3.00488 20.003V10.003H1.00488V8.00301L5.54088 8.004C5.04357 7.14475 4.88357 6.13126 5.09199 5.1606C5.3004 4.18993 5.86234 3.33145 6.66855 2.75208C7.47475 2.17271 8.4676 1.91386 9.45405 2.02584C10.4405 2.13783 11.3501 2.61266 12.0059 3.35801C12.3804 2.93151 12.8417 2.58998 13.3589 2.35629C13.8761 2.1226 14.4373 2.00215 15.0049 2.00301ZM13.0049 10.003H11.0049V20.003H13.0049V10.003ZM9.00488 4.003C8.48827 4.00423 7.99216 4.20531 7.62049 4.56413C7.24882 4.92296 7.03041 5.41168 7.01102 5.92794C6.99163 6.44419 7.17277 6.94793 7.51648 7.33362C7.86019 7.71931 8.33981 7.95704 8.85488 7.99701L9.00488 8.00301H11.0049V6.00301C11.0049 5.52507 10.8338 5.06292 10.5225 4.70026C10.2112 4.3376 9.7803 4.09841 9.30788 4.02601L9.15388 4.008L9.00388 4.003H9.00488ZM15.0049 4.003C14.5003 4.00285 14.0143 4.19341 13.6443 4.5365C13.2744 4.87959 13.0477 5.34985 13.0099 5.85301L13.0049 6.00301V8.00301H15.0049C15.5093 8.00291 15.995 7.81223 16.3648 7.46917C16.7346 7.1261 16.9611 6.65599 16.9989 6.15301L17.0049 6.00301C17.0049 5.47257 16.7942 4.96386 16.4191 4.58879C16.044 4.21372 15.5353 4.003 15.0049 4.003Z" fill="#F8F8F8"/>
<path d="M15.0049 2.00301C15.7072 2.00292 16.3971 2.18774 17.0053 2.53887C17.6135 2.89 18.1185 3.39507 18.4696 4.0033C18.8207 4.61153 19.0055 5.30147 19.0054 6.00375C19.0052 6.70604 18.8202 7.39591 18.4689 8.004L23.0049 8.00301V10.003H21.0049V20.003C21.0049 20.2682 20.8995 20.5226 20.712 20.7101C20.5245 20.8976 20.2701 21.003 20.0049 21.003H4.00488C3.73967 21.003 3.48531 20.8976 3.29778 20.7101C3.11024 20.5226 3.00488 20.2682 3.00488 20.003V10.003H1.00488V8.00301L5.54088 8.004C5.04357 7.14475 4.88357 6.13126 5.09199 5.1606C5.3004 4.18993 5.86234 3.33145 6.66855 2.75208C7.47475 2.17271 8.4676 1.91386 9.45405 2.02584C10.4405 2.13783 11.3501 2.61266 12.0059 3.35801C12.3804 2.93151 12.8417 2.58998 13.3589 2.35629C13.8761 2.1226 14.4373 2.00215 15.0049 2.00301ZM13.0049 10.003H11.0049V20.003H13.0049V10.003ZM9.00488 4.003C8.48827 4.00423 7.99216 4.20531 7.62049 4.56413C7.24882 4.92296 7.03041 5.41168 7.01102 5.92794C6.99163 6.44419 7.17277 6.94793 7.51648 7.33362C7.86019 7.71931 8.33981 7.95704 8.85488 7.99701L9.00488 8.00301H11.0049V6.00301C11.0049 5.52507 10.8338 5.06292 10.5225 4.70026C10.2112 4.3376 9.7803 4.09841 9.30788 4.02601L9.15388 4.008L9.00388 4.003H9.00488ZM15.0049 4.003C14.5003 4.00285 14.0143 4.19341 13.6443 4.5365C13.2744 4.87959 13.0477 5.34985 13.0099 5.85301L13.0049 6.00301V8.00301H15.0049C15.5093 8.00291 15.995 7.81223 16.3648 7.46917C16.7346 7.1261 16.9611 6.65599 16.9989 6.15301L17.0049 6.00301C17.0049 5.47257 16.7942 4.96386 16.4191 4.58879C16.044 4.21372 15.5353 4.003 15.0049 4.003Z" fill="url(#paint0_linear_8_2842)"/>
<defs>
<linearGradient id="paint0_linear_8_2842" x1="-1.53358" y1="4.9238" x2="53.4999" y2="3.82523" gradientUnits="userSpaceOnUse">
<stop offset="0.0152812" stop-color="#9064FF"/>
<stop offset="0.921485" stop-color="#AC007D"/>
</linearGradient>
</defs>
</svg>
