<svg width="24" height="24" viewBox="0 0 24 24" fill="none" xmlns="http://www.w3.org/2000/svg">
<g id="evaInfoOutline0">
<g id="evaInfoOutline1">
<g id="evaInfoOutline2">
<path id="Vector" d="M11.6667 0C9.35922 0 7.10359 0.684238 5.18502 1.96619C3.26645 3.24814 1.7711 5.07022 0.888077 7.20203C0.00505498 9.33383 -0.225984 11.6796 0.224177 13.9427C0.674338 16.2058 1.78548 18.2846 3.41709 19.9162C5.04871 21.5479 7.12751 22.659 9.39062 23.1092C11.6537 23.5593 13.9995 23.3283 16.1313 22.4453C18.2631 21.5622 20.0852 20.0669 21.3671 18.1483C22.6491 16.2297 23.3333 13.9741 23.3333 11.6667C23.3333 10.1346 23.0316 8.61749 22.4453 7.20203C21.859 5.78656 20.9996 4.50044 19.9163 3.41709C18.8329 2.33374 17.5468 1.47438 16.1313 0.888072C14.7158 0.301767 13.1988 0 11.6667 0ZM11.6667 21C9.82071 21 8.01621 20.4526 6.48135 19.427C4.94649 18.4015 3.75021 16.9438 3.0438 15.2384C2.33738 13.5329 2.15255 11.6563 2.51268 9.84582C2.8728 8.03533 3.76172 6.37229 5.06701 5.067C6.3723 3.76171 8.03534 2.8728 9.84583 2.51267C11.6563 2.15254 13.5329 2.33737 15.2384 3.04379C16.9438 3.75021 18.4015 4.94649 19.4271 6.48134C20.4526 8.0162 21 9.82071 21 11.6667C21 14.142 20.0167 16.516 18.2663 18.2663C16.516 20.0167 14.142 21 11.6667 21Z" fill="#6736FF"/>
<path id="Vector_2" d="M11.6667 8.16665C12.311 8.16665 12.8333 7.64431 12.8333 6.99998C12.8333 6.35565 12.311 5.83331 11.6667 5.83331C11.0223 5.83331 10.5 6.35565 10.5 6.99998C10.5 7.64431 11.0223 8.16665 11.6667 8.16665Z" fill="#6736FF"/>
<path id="Vector_3" d="M11.6667 9.33331C11.3572 9.33331 11.0605 9.45623 10.8417 9.67502C10.6229 9.89381 10.5 10.1906 10.5 10.5V16.3333C10.5 16.6427 10.6229 16.9395 10.8417 17.1583C11.0605 17.3771 11.3572 17.5 11.6667 17.5C11.9761 17.5 12.2728 17.3771 12.4916 17.1583C12.7104 16.9395 12.8333 16.6427 12.8333 16.3333V10.5C12.8333 10.1906 12.7104 9.89381 12.4916 9.67502C12.2728 9.45623 11.9761 9.33331 11.6667 9.33331Z" fill="#6736FF"/>
</g>
</g>
</g>
</svg>
