<svg width="66" height="66" viewBox="0 0 66 66" fill="none" xmlns="http://www.w3.org/2000/svg">
<circle cx="33" cy="33" r="33" fill="#7B50FF" fill-opacity="0.25"/>
<circle cx="33.1702" cy="33.1702" r="23.1702" fill="#6E3FFF" fill-opacity="0.8"/>
<path d="M27.8182 43H22.872C22.5285 43 22.1851 42.6565 22.1851 42.313V37.2982C22.1851 36.886 22.5285 36.6112 22.872 36.6112H27.6808V42.313C27.6808 42.5191 27.7495 42.7939 27.8182 43ZM37.2983 34.0695V42.313C37.2983 42.6565 36.9548 43 36.6113 43H29.7417C29.3982 43 29.0547 42.6565 29.0547 42.313V34.0695C29.0547 33.6573 29.3982 33.3825 29.7417 33.3825H36.6113C36.9548 33.3825 37.2983 33.6573 37.2983 34.0695ZM44.1679 38.1913V42.313C44.1679 42.6565 43.8244 43 43.4809 43H38.5348C38.6035 42.7939 38.6722 42.5191 38.6722 42.313V37.5043H43.4809C43.8244 37.5043 44.1679 37.7791 44.1679 38.1913ZM38.7409 25.8259L36.4739 28.0242L37.0235 31.1842C37.0922 31.459 36.9548 31.7338 36.7487 31.8712C36.5426 32.0086 36.1991 32.0086 35.993 31.9399L33.1765 30.4286L30.3599 31.8712C30.1538 32.0086 29.879 32.0086 29.673 31.8025C29.4669 31.6651 29.3295 31.3903 29.3982 31.1155L29.9477 27.9555L27.6121 25.8259C27.4747 25.6885 27.406 25.4137 27.4747 25.139C27.5434 24.8642 27.7495 24.7268 28.0242 24.6581L31.1843 24.1772L32.5582 21.3607C32.7643 20.8798 33.5886 20.8798 33.7947 21.3607L35.1687 24.1772L38.3287 24.6581C38.6035 24.7268 38.8096 24.8642 38.8783 25.139C38.947 25.4137 38.8783 25.6885 38.7409 25.8259Z" fill="#FFFEFE"/>
</svg>
