<svg width="18" height="24" viewBox="0 0 18 24" fill="none" xmlns="http://www.w3.org/2000/svg">
<path d="M5.94219 10.2121C5.74217 10.9412 5.67853 11.6703 5.76035 12.3994C5.77854 12.5254 5.78763 12.6514 5.8149 12.7864V12.7954C5.95128 13.5515 6.23312 14.3166 6.66044 15.0637C6.83318 15.3697 7.0332 15.6578 7.24231 15.9188C8.05148 16.9359 9.1243 17.638 10.4244 18.0341C11.0245 18.2141 11.67 18.3041 12.3064 18.3221C14.143 18.3581 15.9886 18.3401 17.8524 18.3401V23.6597C17.8069 23.6687 17.7615 23.6958 17.716 23.6958C16.0795 23.6868 14.4339 23.7588 12.7974 23.6958C12.3519 23.6777 11.9064 23.6507 11.4609 23.6057C6.24222 23.1107 2.53278 20.4194 0.714426 15.5228C-0.703889 11.6793 0.0325438 8.03387 2.54187 4.80248C3.48741 3.57833 4.57842 2.57921 5.80581 1.82312C7.45142 0.796995 9.33341 0.202924 11.4336 0.0679075C13.5065 -0.0671088 15.5885 0.0409045 17.6978 0.0409045C17.7524 0.0409045 17.8069 0.0409045 17.8615 0.0409045V5.26153C17.7433 5.27053 17.6342 5.27953 17.5251 5.27953C15.8886 5.27953 14.2611 5.27953 12.6337 5.27953C9.95165 5.27953 7.87873 6.38667 6.57861 8.71795C6.44223 8.96998 6.32404 9.21301 6.21494 9.46504C6.10584 9.69907 6.01492 9.9601 5.94219 10.2121ZM6.66044 15.0637C6.83318 15.3697 7.0332 15.6578 7.24231 15.9188C6.50588 15.4328 5.98765 14.4516 5.8149 12.7954C5.95128 13.5515 6.23312 14.3166 6.66044 15.0637ZM17.8615 0.0319041V5.25253C17.7433 5.26153 17.6342 5.27053 17.5251 5.27053C15.8886 5.27053 14.2611 5.27053 12.6337 5.27053C9.95165 5.27053 7.87873 6.37767 6.57861 8.70895C6.29677 9.21301 6.08766 9.70807 5.95128 10.2121C7.13321 4.56845 11.4336 0.0589073 17.6978 0.0319041C17.7524 0.0319041 17.8069 0.0319041 17.8615 0.0319041ZM17.8524 18.3311V23.6507C17.8069 23.6597 17.7615 23.6868 17.716 23.6868C16.0795 23.6777 14.4339 23.7498 12.7974 23.6868C7.72417 21.9585 3.64197 17.467 6.1513 9.43803C6.1513 9.43803 6.16948 9.43803 6.21494 9.44703C6.10584 9.69906 6.02401 9.9511 5.95128 10.2121C5.71489 11.0672 5.66943 11.9313 5.82399 12.7864V12.7954C5.96037 13.5515 6.24222 14.3166 6.66953 15.0637C6.84227 15.3697 7.04229 15.6578 7.2514 15.9188C8.06057 16.9359 9.1334 17.638 10.4335 18.0341C11.0336 18.2141 11.6791 18.3041 12.3155 18.3221C14.143 18.3491 15.9795 18.3311 17.8524 18.3311Z" fill="white"/>
</svg>
