<svg width="26" height="25" viewBox="0 0 26 25" fill="none" xmlns="http://www.w3.org/2000/svg">
<path d="M17.6261 24.6318C17.9817 25.0125 18.5787 25.0329 18.9595 24.6772L25.1644 18.8811C25.5452 18.5255 25.5655 17.9285 25.2098 17.5477C24.8542 17.1669 24.2572 17.1466 23.8764 17.5023L18.3609 22.6543L13.2089 17.1388C12.8532 16.7581 12.2562 16.7377 11.8754 17.0934C11.4947 17.4491 11.4743 18.0461 11.83 18.4269L17.6261 24.6318ZM18.1435 1.3264L17.3726 23.9556L19.2584 24.0199L20.0293 1.39064L18.1435 1.3264Z" fill="white"/>
<path d="M8.46037 0.356024C8.1047 -0.0247397 7.50769 -0.0450784 7.12693 0.310596L0.922019 6.10666C0.541255 6.46233 0.520916 7.05933 0.876591 7.4401C1.23227 7.82086 1.82927 7.8412 2.21003 7.48552L7.72551 2.33347L12.8776 7.84895C13.2332 8.22971 13.8302 8.25005 14.211 7.89438C14.5918 7.5387 14.6121 6.9417 14.2564 6.56093L8.46037 0.356024ZM7.94289 23.6614L8.71382 1.03215L6.82805 0.967908L6.05711 23.5972L7.94289 23.6614Z" fill="white"/>
</svg>
