<svg width="26" height="23" viewBox="0 0 26 23" fill="none" xmlns="http://www.w3.org/2000/svg">
<path d="M15.9474 8.36364C16.5712 8.36364 17.1695 8.61146 17.6107 9.0526C18.0518 9.49374 18.2996 10.092 18.2996 10.7159V17.249C18.2996 18.7742 17.6937 20.237 16.6152 21.3156C15.5367 22.3941 14.0739 23 12.5486 23C11.0233 23 9.56052 22.3941 8.48199 21.3156C7.40346 20.237 6.79755 18.7742 6.79755 17.249V10.7159C6.79755 10.092 7.04537 9.49374 7.48651 9.0526C7.92765 8.61146 8.52596 8.36364 9.14982 8.36364H15.9474ZM15.9474 9.93182H9.14982C8.94186 9.93182 8.74243 10.0144 8.59538 10.1615C8.44834 10.3085 8.36573 10.508 8.36573 10.7159V17.249C8.36573 18.3583 8.80642 19.4222 9.59086 20.2067C10.3753 20.9911 11.4392 21.4318 12.5486 21.4318C13.658 21.4318 14.7219 20.9911 15.5063 20.2067C16.2908 19.4222 16.7315 18.3583 16.7315 17.249V10.7159C16.7315 10.508 16.6488 10.3085 16.5018 10.1615C16.3548 10.0144 16.1553 9.93182 15.9474 9.93182ZM2.35227 8.36364H6.69718C6.27745 8.80065 5.98251 9.34216 5.84305 9.93182H2.35227C2.14432 9.93182 1.94488 10.0144 1.79784 10.1615C1.65079 10.3085 1.56818 10.508 1.56818 10.7159V16.2035C1.56804 16.7281 1.69943 17.2443 1.95032 17.705C2.20122 18.1656 2.56362 18.556 3.00436 18.8405C3.44511 19.1249 3.95014 19.2943 4.47326 19.3331C4.99638 19.372 5.52089 19.279 5.99882 19.0628C6.13786 19.5751 6.33755 20.0623 6.58845 20.5181C5.87218 20.8308 5.08929 20.9602 4.31048 20.8946C3.53167 20.829 2.78147 20.5704 2.12763 20.1422C1.47379 19.714 0.936898 19.1297 0.565437 18.4421C0.193977 17.7544 -0.00035158 16.9851 4.77504e-07 16.2035V10.7159C4.77504e-07 10.092 0.247828 9.49374 0.688965 9.0526C1.1301 8.61146 1.72841 8.36364 2.35227 8.36364ZM22.7386 8.36364C23.3625 8.36364 23.9608 8.61146 24.4019 9.0526C24.8431 9.49374 25.0909 10.092 25.0909 10.7159V16.2045C25.0912 16.9857 24.897 17.7546 24.5259 18.4419C24.1547 19.1292 23.6182 19.7133 22.9649 20.1414C22.3115 20.5695 21.5619 20.8282 20.7835 20.8942C20.0052 20.9601 19.2227 20.8312 18.5066 20.5191L18.5652 20.4125C18.7889 19.988 18.9698 19.5375 19.0994 19.0649C19.5771 19.2798 20.101 19.3717 20.6232 19.3322C21.1455 19.2926 21.6496 19.1229 22.0894 18.8384C22.5293 18.554 22.8909 18.164 23.1412 17.7039C23.3916 17.2438 23.5228 16.7283 23.5227 16.2045V10.7159C23.5227 10.5081 23.4403 10.3089 23.2934 10.1618C23.1466 10.0148 22.9475 9.93209 22.7397 9.93182H19.2552C19.1155 9.34203 18.8202 8.8005 18.4 8.36364H22.7386ZM12.5455 0C13.026 -1.01262e-08 13.5018 0.0946451 13.9457 0.278532C14.3897 0.462418 14.793 0.731945 15.1328 1.07172C15.4726 1.4115 15.7421 1.81488 15.926 2.25882C16.1099 2.70276 16.2045 3.17857 16.2045 3.65909C16.2045 4.13961 16.1099 4.61542 15.926 5.05936C15.7421 5.50331 15.4726 5.90668 15.1328 6.24646C14.793 6.58624 14.3897 6.85576 13.9457 7.03965C13.5018 7.22354 13.026 7.31818 12.5455 7.31818C11.575 7.31818 10.6443 6.93267 9.95809 6.24646C9.27187 5.56025 8.88636 4.62954 8.88636 3.65909C8.88636 2.68864 9.27187 1.75794 9.95809 1.07172C10.6443 0.38551 11.575 2.04507e-08 12.5455 0ZM20.9122 1.04545C21.3241 1.04545 21.7319 1.12658 22.1125 1.2842C22.493 1.44181 22.8387 1.67284 23.13 1.96407C23.4212 2.25531 23.6522 2.60106 23.8098 2.98158C23.9675 3.3621 24.0486 3.76994 24.0486 4.18182C24.0486 4.59369 23.9675 5.00153 23.8098 5.38205C23.6522 5.76257 23.4212 6.10832 23.13 6.39956C22.8387 6.6908 22.493 6.92182 22.1125 7.07944C21.7319 7.23706 21.3241 7.31818 20.9122 7.31818C20.0804 7.31818 19.2827 6.98774 18.6945 6.39956C18.1063 5.81138 17.7759 5.01363 17.7759 4.18182C17.7759 3.35 18.1063 2.55226 18.6945 1.96407C19.2827 1.37589 20.0804 1.04545 20.9122 1.04545ZM4.17868 1.04545C4.59056 1.04545 4.9984 1.12658 5.37892 1.2842C5.75944 1.44181 6.10519 1.67284 6.39643 1.96407C6.68766 2.25531 6.91869 2.60106 7.0763 2.98158C7.23392 3.3621 7.31505 3.76994 7.31505 4.18182C7.31505 4.59369 7.23392 5.00153 7.0763 5.38205C6.91869 5.76257 6.68766 6.10832 6.39643 6.39956C6.10519 6.6908 5.75944 6.92182 5.37892 7.07944C4.9984 7.23706 4.59056 7.31818 4.17868 7.31818C3.34687 7.31818 2.54912 6.98774 1.96094 6.39956C1.37276 5.81138 1.04232 5.01363 1.04232 4.18182C1.04232 3.35 1.37276 2.55226 1.96094 1.96407C2.54912 1.37589 3.34687 1.04545 4.17868 1.04545ZM12.5455 1.56818C11.9909 1.56818 11.4591 1.78847 11.067 2.18059C10.6748 2.57272 10.4545 3.10455 10.4545 3.65909C10.4545 4.21363 10.6748 4.74547 11.067 5.13759C11.4591 5.52971 11.9909 5.75 12.5455 5.75C13.1 5.75 13.6318 5.52971 14.0239 5.13759C14.4161 4.74547 14.6364 4.21363 14.6364 3.65909C14.6364 3.10455 14.4161 2.57272 14.0239 2.18059C13.6318 1.78847 13.1 1.56818 12.5455 1.56818ZM20.9122 2.61364C20.7063 2.61364 20.5024 2.6542 20.3121 2.73301C20.1218 2.81182 19.949 2.92733 19.8034 3.07295C19.6577 3.21856 19.5422 3.39144 19.4634 3.5817C19.3846 3.77196 19.344 3.97588 19.344 4.18182C19.344 4.38775 19.3846 4.59167 19.4634 4.78194C19.5422 4.9722 19.6577 5.14507 19.8034 5.29069C19.949 5.43631 20.1218 5.55182 20.3121 5.63063C20.5024 5.70944 20.7063 5.75 20.9122 5.75C21.3281 5.75 21.727 5.58478 22.0211 5.29069C22.3152 4.9966 22.4804 4.59773 22.4804 4.18182C22.4804 3.76591 22.3152 3.36704 22.0211 3.07295C21.727 2.77885 21.3281 2.61364 20.9122 2.61364ZM4.17868 2.61364C3.97275 2.61364 3.76883 2.6542 3.57857 2.73301C3.3883 2.81182 3.21543 2.92733 3.06981 3.07295C2.92419 3.21856 2.80868 3.39144 2.72987 3.5817C2.65106 3.77196 2.6105 3.97588 2.6105 4.18182C2.6105 4.38775 2.65106 4.59167 2.72987 4.78194C2.80868 4.9722 2.92419 5.14507 3.06981 5.29069C3.21543 5.43631 3.3883 5.55182 3.57857 5.63063C3.76883 5.70944 3.97275 5.75 4.17868 5.75C4.59459 5.75 4.99346 5.58478 5.28755 5.29069C5.58165 4.9966 5.74686 4.59773 5.74686 4.18182C5.74686 3.76591 5.58165 3.36704 5.28755 3.07295C4.99346 2.77885 4.59459 2.61364 4.17868 2.61364Z" fill="white"/>
</svg>
