<svg width="24" height="24" viewBox="0 0 24 24" fill="none" xmlns="http://www.w3.org/2000/svg">
<path d="M12 2C6.5 2 2 6.5 2 12C2 17.5 6.5 22 12 22C17.5 22 22 17.5 22 12C22 6.5 17.5 2 12 2ZM10 17L5 12L6.41 10.59L10 14.17L17.59 6.58L19 8L10 17Z" fill="#F8F8F8"/>
<path d="M12 2C6.5 2 2 6.5 2 12C2 17.5 6.5 22 12 22C17.5 22 22 17.5 22 12C22 6.5 17.5 2 12 2ZM10 17L5 12L6.41 10.59L10 14.17L17.59 6.58L19 8L10 17Z" fill="url(#paint0_linear_8_2834)"/>
<defs>
<linearGradient id="paint0_linear_8_2834" x1="-0.307692" y1="5.07692" x2="49.7278" y2="4.2142" gradientUnits="userSpaceOnUse">
<stop offset="0.0152812" stop-color="#9064FF"/>
<stop offset="0.921485" stop-color="#AC007D"/>
</linearGradient>
</defs>
</svg>
