<svg width="14" height="14" viewBox="0 0 14 14" fill="none" xmlns="http://www.w3.org/2000/svg">
<path fill-rule="evenodd" clip-rule="evenodd" d="M11.7251 3.77419L9.80008 1.84919C9.36212 1.41171 8.76827 1.1662 8.14925 1.16669H5.42508C4.80606 1.1662 4.21221 1.41171 3.77425 1.84919L1.84925 3.77419C1.41178 4.21215 1.16626 4.806 1.16675 5.42502V8.14919C1.16781 8.76619 1.4132 9.35766 1.84925 9.79419L3.77425 11.725C4.21221 12.1625 4.80606 12.408 5.42508 12.4075H8.14925C8.76827 12.408 9.36212 12.1625 9.80008 11.725L11.7251 9.79419C12.1611 9.35766 12.4065 8.76619 12.4076 8.14919V5.42502C12.4081 4.806 12.1626 4.21215 11.7251 3.77419ZM6.34675 4.82419C6.34675 4.66788 6.43013 4.52345 6.5655 4.4453C6.70086 4.36715 6.86764 4.36715 7.003 4.4453C7.13836 4.52345 7.22175 4.66788 7.22175 4.82419V6.63252C7.22175 6.87415 7.02587 7.07002 6.78425 7.07002C6.54262 7.07002 6.34675 6.87415 6.34675 6.63252V4.82419ZM6.79008 8.76169C7.03171 8.76169 7.22758 8.56581 7.22758 8.32419C7.22758 8.08256 7.03171 7.88669 6.79008 7.88669C6.54846 7.88669 6.35258 8.08256 6.35258 8.32419C6.35258 8.56581 6.54846 8.76169 6.79008 8.76169Z" fill="#F8C007"/>
</svg>
