<svg width="44" height="44" viewBox="0 0 44 44" fill="none" xmlns="http://www.w3.org/2000/svg">
<rect width="44" height="44" rx="4.59701" fill="#9F79FF"/>
<path d="M22.0601 32.1177C27.3494 32.1177 31.6372 27.8299 31.6372 22.5406C31.6372 17.2513 27.3494 12.9635 22.0601 12.9635C16.7708 12.9635 12.483 17.2513 12.483 22.5406C12.483 24.0727 12.8427 25.5207 13.4823 26.8048C13.6523 27.1461 13.7089 27.5361 13.6103 27.9044L13.0399 30.0363C12.7923 30.9618 13.639 31.8084 14.5644 31.5608L16.6963 30.9904C17.0646 30.8919 17.4547 30.9484 17.7959 31.1184C19.08 31.758 20.5281 32.1177 22.0601 32.1177Z" fill="black"/>
<path d="M24.9332 22.5406C24.9332 23.0696 25.362 23.4983 25.8909 23.4983C26.4199 23.4983 26.8486 23.0696 26.8486 22.5406C26.8486 22.0117 26.4199 21.5829 25.8909 21.5829C25.362 21.5829 24.9332 22.0117 24.9332 22.5406Z" fill="#AD6AFF"/>
<path d="M21.1024 22.5406C21.1024 23.0696 21.5312 23.4983 22.0601 23.4983C22.589 23.4983 23.0178 23.0696 23.0178 22.5406C23.0178 22.0117 22.589 21.5829 22.0601 21.5829C21.5312 21.5829 21.1024 22.0117 21.1024 22.5406Z" fill="#AD6AFF"/>
<path d="M17.2715 22.5406C17.2715 23.0696 17.7003 23.4983 18.2292 23.4983C18.7582 23.4983 19.187 23.0696 19.187 22.5406C19.187 22.0117 18.7582 21.5829 18.2292 21.5829C17.7003 21.5829 17.2715 22.0117 17.2715 22.5406Z" fill="#AD6AFF"/>
</svg>
