<svg width="68" height="68" viewBox="0 0 68 68" fill="none" xmlns="http://www.w3.org/2000/svg">
<rect x="0.0390625" y="0.176758" width="67" height="67" rx="7" fill="#64B6F0"/>
<g clip-path="url(#clip0_1_166)">
<mask id="mask0_1_166" style="mask-type:luminance" maskUnits="userSpaceOnUse" x="15" y="16" width="36" height="36">
<path d="M50.9082 16.1768H15.9082V51.1768H50.9082V16.1768Z" fill="white"/>
</mask>
<g mask="url(#mask0_1_166)">
<path d="M34.9576 16.1768C24.4296 16.1768 15.9082 24.6967 15.9082 35.2262C15.9082 35.793 16.3677 36.2526 16.9346 36.2526H34.9576C35.5244 36.2526 35.984 35.793 35.984 35.2262V17.2031C35.984 16.6363 35.5244 16.1768 34.9576 16.1768Z" fill="black"/>
<path d="M27.6555 39.2198C27.4754 38.891 27.1303 38.6866 26.7554 38.6866H20.6855C20.3588 38.6866 20.0515 38.8421 19.8582 39.1055C19.6648 39.369 19.6085 39.7086 19.7063 40.0203C21.6394 46.1774 27.2152 50.755 33.9312 51.1767V43.4836C31.2971 43.1567 28.9516 41.586 27.6555 39.2198Z" fill="black"/>
<path d="M39.7518 19.9749C39.4401 19.8772 39.1003 19.9336 38.837 20.1268C38.5735 20.3202 38.418 20.6274 38.418 20.9542V27.0241C38.418 27.3989 38.6225 27.7439 38.9512 27.9241C41.3173 29.2203 42.8881 31.5657 43.2149 34.1998H50.9082C50.4855 27.4693 45.8943 21.9035 39.7518 19.9749Z" fill="black"/>
<path d="M43.2162 36.2525C42.7506 40.0224 39.7538 43.0192 35.9839 43.4848V51.176C43.9925 50.672 50.4027 44.2719 50.9074 36.2525H43.2162Z" fill="black"/>
</g>
</g>
<defs>
<clipPath id="clip0_1_166">
<rect width="35" height="35" fill="white" transform="translate(15.9082 16.1768)"/>
</clipPath>
</defs>
</svg>
