<svg width="48" height="48" viewBox="0 0 48 48" fill="none" xmlns="http://www.w3.org/2000/svg">
<path d="M18.0001 42H30.0001C40.0001 42 44.0001 38.2 44.0001 28.7V17.3C44.0001 7.8 40.0001 4 30.0001 4H18.0001C8.00012 4 4.00012 7.8 4.00012 17.3V28.7C4.00012 38.2 8.00012 42 18.0001 42Z" stroke="url(#paint0_linear_1_25)" stroke-width="1.5" stroke-linecap="round" stroke-linejoin="round"/>
<path d="M19.0001 24.0017V21.1365C19.0001 17.4389 21.7001 15.9482 25.0001 17.7873L27.5601 19.2199L30.1201 20.6525C33.4201 22.4917 33.4201 25.5118 30.1201 27.3509L27.5601 28.7835L25.0001 30.2161C21.7001 32.0553 19.0001 30.5452 19.0001 26.8669V24.0017Z" fill="url(#paint1_linear_1_25)"/>
<defs>
<linearGradient id="paint0_linear_1_25" x1="7.00012" y1="3.99999" x2="43.8934" y2="7.31903" gradientUnits="userSpaceOnUse">
<stop stop-color="#6A3FD7"/>
<stop offset="1" stop-color="#77177A"/>
</linearGradient>
<linearGradient id="paint1_linear_1_25" x1="20.0197" y1="17" x2="32.5739" y2="18.0419" gradientUnits="userSpaceOnUse">
<stop stop-color="#6A3FD7"/>
<stop offset="1" stop-color="#77177A"/>
</linearGradient>
</defs>
</svg>
