<svg width="68" height="68" viewBox="0 0 68 68" fill="none" xmlns="http://www.w3.org/2000/svg">
<rect x="0.949219" y="0.678223" width="67" height="67" rx="7" fill="#9F79FF"/>
<g clip-path="url(#clip0_1_180)">
<mask id="mask0_1_180" style="mask-type:luminance" maskUnits="userSpaceOnUse" x="16" y="16" width="36" height="36">
<path d="M51.9492 16.6782H16.9492V51.6782H51.9492V16.6782Z" fill="white"/>
</mask>
<g mask="url(#mask0_1_180)">
<path d="M31.373 51.6782V48.5337C29.1109 48.5337 27.2715 46.6942 27.2715 44.4321C27.2715 42.17 29.1109 40.3305 31.373 40.3305V37.2544H25.6412L26.1289 35.8845C26.2071 35.6672 26.2461 35.4379 26.2461 35.2036C26.2461 34.0731 25.3258 33.1528 24.1953 33.1528C23.0648 33.1528 22.1445 34.0731 22.1445 35.2036C22.1445 35.4379 22.1836 35.6672 22.2617 35.8845L22.7494 37.2544H16.9492C17.458 44.9169 23.7105 51.1694 31.373 51.6782Z" fill="black"/>
<path d="M24.1953 31.1021C26.4574 31.1021 28.2969 32.9416 28.2969 35.2036H31.373V29.4718L32.7429 29.9595C34.0056 30.4091 35.4736 29.3897 35.4746 28.0259C35.4736 26.6611 34.0066 25.6337 32.7429 26.0923L31.373 26.58V20.9001C23.7105 21.4089 17.458 27.5411 16.9492 35.2036H20.0937C20.0937 32.9416 21.9332 31.1021 24.1953 31.1021Z" fill="black"/>
<path d="M47.7274 37.2544H44.7032C44.7032 39.5165 42.8637 41.3559 40.6016 41.3559C38.3396 41.3559 36.5001 39.5165 36.5001 37.2544H33.4239V42.9862L32.0541 42.4985C30.7863 42.0429 29.3213 43.0672 29.3223 44.4321C29.3213 45.797 30.7874 46.8213 32.0541 46.3657L33.4239 45.878V51.6782C41.0864 51.1694 47.2186 44.9169 47.7274 37.2544Z" fill="black"/>
<path d="M47.7793 24.9497V20.8481H43.6777C43.6777 18.5861 41.8382 16.6782 39.5762 16.6782C37.3141 16.6782 35.4746 18.5861 35.4746 20.8481H33.4238V23.9243C35.6859 23.9243 37.5254 25.7638 37.5254 28.0259C37.5254 30.2879 35.6859 32.1274 33.4238 32.1274V35.2036H39.1556L38.6679 36.5734C38.5898 36.7908 38.5508 37.02 38.5508 37.2544C38.5508 38.3849 39.471 39.3052 40.6015 39.3052C41.7321 39.3052 42.6523 38.3849 42.6523 37.2544C42.6523 37.02 42.6133 36.7908 42.5352 36.5734L42.0475 35.2036H47.7793V33.1528C50.0414 33.1528 51.9492 31.3133 51.9492 29.0512C51.9492 26.7892 50.0414 24.9497 47.7793 24.9497Z" fill="black"/>
</g>
</g>
<defs>
<clipPath id="clip0_1_180">
<rect width="35" height="35" fill="white" transform="translate(16.9492 16.6782)"/>
</clipPath>
</defs>
</svg>
