<svg width="158" height="158" viewBox="0 0 158 158" fill="none" xmlns="http://www.w3.org/2000/svg">
<path fill-rule="evenodd" clip-rule="evenodd" d="M79.5549 1.71084C89.7584 1.79228 99.2078 10.1666 106.122 24.2753C108.929 30.004 111.291 36.6289 113.091 43.9236C102.861 41.3777 91.3839 39.9054 79.2506 39.8086C67.1175 39.7117 55.6182 41.0006 45.3492 43.3828C47.2659 36.1178 49.7327 29.5315 52.6311 23.8484C59.7696 9.85189 69.3514 1.62941 79.5549 1.71084ZM44.211 43.6526C50.84 18.0563 64.2438 0.55559 79.5632 0.677854C94.8826 0.800119 108.005 18.5127 114.225 44.2115C139.821 50.8406 157.321 64.2443 157.199 79.5635C157.077 94.8828 139.365 108.006 113.666 114.225C107.037 139.821 93.6333 157.322 78.314 157.199C62.9947 157.077 49.8721 139.365 43.6524 113.667C18.0561 107.038 0.555279 93.6338 0.677539 78.3143C0.799804 62.995 18.5122 49.8722 44.211 43.6526ZM43.3826 112.528C36.1176 110.612 29.5312 108.145 23.8481 105.246C9.85157 98.1079 1.6291 88.5261 1.71053 78.3226C1.79196 68.1191 10.1663 58.6697 24.275 51.7556C30.0036 48.9482 36.6284 46.5869 43.9231 44.7864C41.3772 55.016 39.905 66.4932 39.8082 78.6263C39.7114 90.7597 41.0003 102.259 43.3826 112.528ZM44.5121 112.82C42.0719 102.509 40.7433 90.906 40.8412 78.6345C40.9391 66.3633 42.4527 54.7837 45.0571 44.5123C55.3687 42.0722 66.9711 40.7436 79.2423 40.8416C91.5138 40.9395 103.094 42.4532 113.365 45.0576C115.805 55.3692 117.134 66.9715 117.036 79.2426C116.938 91.5141 115.424 103.094 112.82 113.365C102.508 115.806 90.9056 117.134 78.6342 117.036C66.3631 116.938 54.7834 115.425 44.5121 112.82ZM44.7862 113.954C46.5867 121.249 48.9479 127.873 51.7552 133.602C58.6693 147.711 68.1187 156.085 78.3222 156.166C88.5257 156.248 98.1076 148.025 105.246 134.029C108.144 128.346 110.611 121.76 112.528 114.495C102.259 116.877 90.7593 118.166 78.626 118.069C66.4929 117.972 55.0158 116.5 44.7862 113.954ZM113.954 113.091C121.248 111.291 127.873 108.93 133.602 106.122C147.71 99.2082 156.085 89.7588 156.166 79.5553C156.247 69.3518 148.025 59.7699 134.028 52.6315C128.346 49.7331 121.759 47.2665 114.495 45.3498C116.877 55.6187 118.166 67.1179 118.069 79.2509C117.972 91.3842 116.5 102.862 113.954 113.091ZM100.46 57.4174L93.0886 65.2072C85.7388 72.9743 85.7388 85.1308 93.0886 92.8979L100.46 100.688L92.6699 93.3166C84.9028 85.9668 72.7463 85.9668 64.9792 93.3166L57.1894 100.688L64.5605 92.8979C71.9103 85.1308 71.9103 72.9743 64.5605 65.2072L57.1894 57.4174L64.9792 64.7885C72.7463 72.1383 84.9028 72.1383 92.6699 64.7885L100.46 57.4174Z" fill="white"/>
</svg>
