<svg width="83" height="40" viewBox="0 0 83 40" fill="none" xmlns="http://www.w3.org/2000/svg">
<path d="M81.3417 2.22301C81.197 2.21199 81.1302 2.20097 81.0301 2.20097C81.0634 2.24504 81.0857 2.28912 81.1191 2.28912C81.453 2.31115 81.5309 2.55356 81.6199 2.80699C82.2321 4.43775 81.9538 6.17869 80.5292 7.31361C79.7056 7.9637 78.7819 8.34936 77.7134 8.34936C77.0345 8.34936 76.3556 8.3163 75.6767 8.34936C74.3857 8.40445 72.3044 9.62751 71.9594 11.3244C71.8481 11.8533 71.8259 12.3712 71.9483 12.9C72.4491 15.2029 71.4697 17.3185 69.088 18.0347C66.7508 18.7289 64.4803 17.5168 63.8014 15.1258C63.6122 14.4647 63.6233 13.8146 63.6345 13.1535C63.6567 12.3601 63.6679 11.5668 63.2894 10.8616C62.5438 9.47325 61.4753 8.44852 59.7836 8.30528C59.561 8.28324 59.305 8.30528 59.0936 8.37139C56.5894 9.1427 54.4303 7.61111 53.8293 5.42942C53.2283 3.21468 54.1632 1.09911 56.467 0.261692C58.6484 -0.52063 61.1526 0.51512 61.9539 2.76292C62.2433 3.55626 62.2655 4.38265 62.1431 5.19803C61.8426 7.34666 62.733 8.75704 64.6806 9.60548C65.5154 9.96909 66.3835 10.0132 67.2739 9.96909C68.142 9.92502 69.0212 9.90298 69.8893 9.83687C71.6255 9.70465 73.0946 8.52565 73.3729 6.76267C73.4508 6.26684 73.4397 5.74896 73.3951 5.24211C73.2505 3.33589 74.1631 1.28642 76.133 0.371878C77.2015 -0.123959 78.2699 -0.123959 79.3272 0.371878C79.483 0.449009 79.6055 0.559195 79.7502 0.658362C79.8392 0.724474 79.9171 0.801604 80.0173 0.83466C80.2176 0.900772 80.3512 0.977902 80.34 1.23133C80.34 1.34152 80.4958 1.53985 80.596 1.53985C81.0301 1.55087 81.1191 1.89245 81.3417 2.22301ZM80.2399 11.2473C81.798 11.2583 83 12.4483 83 13.9799C83 15.4894 81.7535 16.7235 80.2287 16.7235C78.7151 16.7235 77.4575 15.4784 77.4686 13.9688C77.4797 12.4483 78.704 11.2362 80.2399 11.2473ZM69.1659 0.393915C70.724 0.404934 71.926 1.59494 71.926 3.12653C71.926 4.63608 70.6795 5.87017 69.1548 5.87017C67.6411 5.87017 66.3835 4.62506 66.3946 3.11551C66.4057 1.59494 67.63 0.382897 69.1659 0.393915ZM7.27409 22.4422C7.02924 23.3347 6.95133 24.2272 7.0515 25.1197C7.07376 25.2739 7.08489 25.4282 7.11827 25.5935V25.6045C7.28522 26.5301 7.63024 27.4667 8.15333 28.3812C8.36479 28.7558 8.60964 29.1084 8.86562 29.428C9.85616 30.6731 11.1695 31.5325 12.761 32.0173C13.4955 32.2377 14.2857 32.3479 15.0648 32.3699C17.313 32.414 19.5723 32.392 21.8539 32.392V38.904C21.7982 38.915 21.7426 38.948 21.6869 38.948C19.6836 38.937 17.6692 39.0252 15.6658 38.948C15.1205 38.926 14.5751 38.893 14.0298 38.8379C7.64137 38.2318 3.10048 34.9373 0.87456 28.9431C-0.861661 24.2382 0.0398383 19.7757 3.11161 15.82C4.26909 14.3214 5.60465 13.0984 7.10715 12.1728C9.12161 10.9167 11.4254 10.1895 13.9964 10.0242C16.5339 9.8589 19.0826 9.99113 21.6647 9.99113C21.7315 9.99113 21.7982 9.99113 21.865 9.99113V16.3819C21.7203 16.3929 21.5868 16.404 21.4532 16.404C19.4499 16.404 17.4577 16.404 15.4655 16.404C12.1823 16.404 9.6447 17.7593 8.05316 20.6131C7.88622 20.9216 7.74153 21.2191 7.60798 21.5276C7.47442 21.8141 7.36313 22.1336 7.27409 22.4422ZM46.417 31.1138C46.417 33.7583 46.417 36.3256 46.417 38.926C44.2689 38.926 42.1654 38.926 40.0286 38.926C40.0286 34.21 40.0286 29.5161 40.0286 24.7781C40.2289 24.7781 40.4181 24.7781 40.6073 24.7781C43.7013 24.7781 46.7954 24.7781 49.8894 24.7781C52.2377 24.7781 54.2299 22.8609 54.2522 20.6021C54.2633 18.189 52.3824 16.2607 49.945 16.2497C46.6952 16.2387 43.4565 16.2497 40.2066 16.2497C40.1621 16.2497 40.1176 16.2387 40.0397 16.2387C40.0397 14.1451 40.0397 12.0626 40.0397 9.94705C40.1176 9.93604 40.2066 9.914 40.2845 9.914C43.6791 9.914 47.0736 9.86992 50.4681 9.93604C53.0613 9.99113 55.3095 10.9938 57.2127 12.7348C59.0491 14.4206 60.1732 16.5141 60.5182 18.9713C60.9967 22.4091 60.0173 25.4282 57.5688 27.9294C55.3874 30.1552 52.6941 31.1579 49.5778 31.1358C48.5538 31.1028 47.5188 31.1138 46.417 31.1138ZM35.0202 38.5734C35.0202 38.926 34.9423 39.0693 34.5528 39.0582C32.7387 39.0362 30.9134 39.0472 29.0993 39.0472H28.6541V9.93604C28.7988 9.92502 28.9323 9.90298 29.0659 9.90298H29.7003C31.3252 9.90298 32.939 9.914 34.5639 9.89196C34.9089 9.89196 35.0314 9.96909 35.0314 10.3327C35.0091 19.7536 35.0091 29.1635 35.0202 38.5734ZM8.15333 28.3812C8.36479 28.7558 8.60964 29.1084 8.86562 29.428C7.96413 28.833 7.32974 27.6319 7.11827 25.6045C7.28522 26.5301 7.63024 27.4667 8.15333 28.3812ZM21.865 9.98011V16.3709C21.7203 16.3819 21.5868 16.3929 21.4532 16.3929C19.4499 16.3929 17.4577 16.3929 15.4655 16.3929C12.1823 16.3929 9.6447 17.7482 8.05316 20.6021C7.70814 21.2191 7.45216 21.8251 7.28522 22.4422C8.73207 15.5335 13.9964 10.0132 21.6647 9.98011C21.7315 9.98011 21.7982 9.98011 21.865 9.98011ZM21.8539 32.381V38.893C21.7982 38.904 21.7426 38.937 21.6869 38.937C19.6836 38.926 17.6692 39.0142 15.6658 38.937C9.45549 36.8215 4.4583 31.3232 7.53007 21.4946C7.53007 21.4946 7.55233 21.4946 7.60798 21.5056C7.47442 21.8141 7.37426 22.1226 7.28522 22.4422C6.99585 23.4889 6.9402 24.5467 7.1294 25.5935V25.6045C7.29635 26.5301 7.64137 27.4667 8.16446 28.3812C8.37592 28.7558 8.62077 29.1084 8.87675 29.428C9.86729 30.6731 11.1806 31.5325 12.7721 32.0173C13.5067 32.2377 14.2969 32.3479 15.076 32.3699C17.313 32.403 19.5612 32.381 21.8539 32.381ZM29.7003 9.90298C29.4109 10.1784 29.0547 10.4539 28.6541 10.7294V9.93604C28.7988 9.92502 28.9323 9.90298 29.0659 9.90298H29.7003Z" fill="url(#paint0_linear_1_371)"/>
<defs>
<linearGradient id="paint0_linear_1_371" x1="5.35149e-06" y1="19.5294" x2="83" y2="19.5294" gradientUnits="userSpaceOnUse">
<stop offset="0.2563" stop-color="#5C27FE"/>
<stop offset="0.8666" stop-color="#DEC7FF"/>
</linearGradient>
</defs>
</svg>
